<svg width="168" height="42" viewBox="0 0 168 42" fill="none" xmlns="http://www.w3.org/2000/svg">
<path d="M54.8452 12.4545L52.4304 27H49.3551L51.7699 12.4545H54.8452ZM69.5415 12.4545L67.1268 27H64.4705L59.6765 17.8452H59.5629L58.0359 27H54.9606L57.3754 12.4545H60.0742L64.8469 21.6023H64.9677L66.4805 12.4545H69.5415ZM79.2628 16.6804C79.2865 16.0885 79.1136 15.6316 78.7443 15.3097C78.3797 14.9877 77.8281 14.8267 77.0895 14.8267C76.5876 14.8267 76.152 14.8977 75.7827 15.0398C75.4134 15.1771 75.1174 15.3688 74.8949 15.6151C74.6771 15.8565 74.5421 16.1359 74.4901 16.4531C74.438 16.7135 74.4545 16.9408 74.5398 17.1349C74.6297 17.3291 74.7694 17.4972 74.9588 17.6392C75.1529 17.7765 75.3826 17.8973 75.6477 18.0014C75.9129 18.1009 76.1946 18.1861 76.4929 18.2571L77.7429 18.5696C78.3537 18.7116 78.9029 18.901 79.3906 19.1378C79.883 19.3745 80.295 19.6657 80.6264 20.0114C80.9626 20.357 81.1993 20.7642 81.3366 21.233C81.474 21.7017 81.4929 22.2391 81.3935 22.8452C81.242 23.7353 80.8892 24.5071 80.3352 25.1605C79.7812 25.8092 79.0545 26.3134 78.1548 26.6733C77.2552 27.0284 76.2135 27.206 75.0298 27.206C73.8556 27.206 72.8636 27.026 72.054 26.6662C71.2443 26.3063 70.6548 25.7737 70.2855 25.0682C69.9209 24.358 69.812 23.4796 69.9588 22.4332H72.9347C72.8826 22.9209 72.9536 23.3281 73.1477 23.6548C73.3466 23.9768 73.6425 24.2206 74.0355 24.3864C74.4285 24.5473 74.8902 24.6278 75.4205 24.6278C75.946 24.6278 76.4124 24.5521 76.8196 24.4006C77.2315 24.2491 77.5653 24.0384 77.821 23.7685C78.0767 23.4986 78.233 23.1884 78.2898 22.8381C78.3466 22.5114 78.2969 22.2367 78.1406 22.0142C77.9844 21.7917 77.7334 21.6023 77.3878 21.446C77.0469 21.285 76.6231 21.143 76.1165 21.0199L74.5966 20.6222C73.4223 20.3239 72.5346 19.8575 71.9332 19.223C71.3319 18.5885 71.1165 17.7339 71.2869 16.6591C71.4384 15.7784 71.8054 15.009 72.3878 14.3509C72.9749 13.688 73.7135 13.1742 74.6037 12.8097C75.4986 12.4403 76.4763 12.2557 77.5369 12.2557C78.6165 12.2557 79.5279 12.4427 80.2713 12.8168C81.0147 13.1861 81.5568 13.7022 81.8977 14.3651C82.2386 15.0279 82.3428 15.7997 82.2102 16.6804H79.2628ZM94.1722 12.4545H97.2475L95.685 21.9006C95.5098 22.9612 95.105 23.8892 94.4705 24.6847C93.8361 25.4801 93.0288 26.1004 92.0487 26.5455C91.0685 26.9858 89.9748 27.206 88.7674 27.206C87.56 27.206 86.542 26.9858 85.7134 26.5455C84.8848 26.1004 84.2859 25.4801 83.9165 24.6847C83.5472 23.8892 83.4502 22.9612 83.6254 21.9006L85.1879 12.4545H88.2631L86.7362 21.6378C86.6509 22.1918 86.6935 22.6842 86.864 23.1151C87.0392 23.5459 87.328 23.8845 87.7305 24.1307C88.1329 24.3769 88.6301 24.5 89.2219 24.5C89.8185 24.5 90.3583 24.3769 90.8413 24.1307C91.329 23.8845 91.729 23.5459 92.0415 23.1151C92.3588 22.6842 92.56 22.1918 92.6452 21.6378L94.1722 12.4545ZM97.3629 27L99.7777 12.4545H105.516C106.615 12.4545 107.519 12.6487 108.229 13.0369C108.944 13.4252 109.446 13.9768 109.735 14.6918C110.029 15.402 110.097 16.2401 109.941 17.206C109.78 18.1719 109.432 19.0005 108.897 19.6918C108.367 20.383 107.675 20.9157 106.823 21.2898C105.976 21.6591 104.993 21.8438 103.876 21.8438H100.033L100.46 19.3722H103.798C104.385 19.3722 104.887 19.2917 105.303 19.1307C105.72 18.9697 106.049 18.7282 106.29 18.4062C106.537 18.0843 106.698 17.6842 106.773 17.206C106.854 16.7183 106.826 16.3111 106.688 15.9844C106.551 15.6529 106.302 15.402 105.942 15.2315C105.583 15.0563 105.109 14.9688 104.522 14.9688H102.448L100.438 27H97.3629ZM106.312 20.3807L108.833 27H105.438L102.995 20.3807H106.312ZM113.112 27H109.817L117.253 12.4545H121.216L123.815 27H120.52L118.751 15.7784H118.638L113.112 27ZM113.865 21.2827H121.649L121.237 23.6832H113.453L113.865 21.2827ZM140.147 12.4545L137.732 27H135.076L130.282 17.8452H130.168L128.641 27H125.566L127.981 12.4545H130.68L135.452 21.6023H135.573L137.086 12.4545H140.147ZM154.662 17.5469H151.594C151.604 17.1397 151.551 16.7798 151.438 16.4673C151.324 16.1501 151.154 15.8802 150.926 15.6577C150.704 15.4351 150.432 15.267 150.11 15.1534C149.788 15.035 149.426 14.9759 149.023 14.9759C148.247 14.9759 147.534 15.17 146.885 15.5582C146.237 15.9465 145.69 16.5099 145.245 17.2486C144.8 17.9825 144.492 18.8703 144.321 19.9119C144.156 20.9157 144.165 21.7562 144.35 22.4332C144.534 23.1103 144.861 23.6217 145.33 23.9673C145.803 24.3082 146.393 24.4787 147.098 24.4787C147.534 24.4787 147.948 24.4242 148.341 24.3153C148.734 24.2017 149.092 24.0407 149.414 23.8324C149.74 23.6193 150.025 23.3613 150.266 23.0582C150.512 22.7552 150.704 22.4119 150.841 22.0284H153.931C153.737 22.696 153.434 23.34 153.022 23.9602C152.614 24.5805 152.11 25.1345 151.509 25.6222C150.908 26.1051 150.223 26.4886 149.456 26.7727C148.689 27.0568 147.849 27.1989 146.935 27.1989C145.614 27.1989 144.48 26.8958 143.533 26.2898C142.591 25.6837 141.911 24.8101 141.495 23.669C141.078 22.5279 141 21.1525 141.26 19.5426C141.521 17.9848 142.03 16.6638 142.787 15.5795C143.55 14.4905 144.475 13.6643 145.564 13.1009C146.658 12.5374 147.828 12.2557 149.073 12.2557C149.939 12.2557 150.723 12.3741 151.424 12.6108C152.124 12.8475 152.721 13.1932 153.213 13.6477C153.711 14.0975 154.085 14.6491 154.336 15.3026C154.587 15.956 154.695 16.7041 154.662 17.5469ZM155.312 27L157.727 12.4545H167.528L167.102 14.9901H160.376L159.808 18.456H166.029L165.603 20.9915H159.382L158.814 24.4645H165.568L165.142 27H155.312Z" fill="white"/>
<path fill-rule="evenodd" clip-rule="evenodd" d="M19.7469 0.279996C20.0541 0.305831 20.532 0.391947 20.8136 0.478063C21.0952 0.564179 21.556 0.805304 21.8376 1.02059C22.1192 1.22727 22.4776 1.5459 22.6397 1.73536C22.8019 1.9162 23.0579 2.33817 23.2115 2.67402C23.3651 3.00987 23.5357 3.54379 23.5869 3.87964C23.6552 4.31022 23.6552 4.65469 23.5869 5.08527C23.5357 5.42973 23.3651 5.96365 23.1944 6.33395C22.964 6.82481 22.7507 7.11761 22.3069 7.53957C21.8973 7.9271 21.5475 8.17683 21.1379 8.34906C20.6685 8.55574 20.3954 8.60741 19.7469 8.64186C19.3032 8.65908 18.7314 8.63325 18.4925 8.58158C18.245 8.52991 17.8184 8.38351 17.5538 8.25434C17.2807 8.11655 16.8711 7.83237 16.6322 7.61708C16.4018 7.40179 16.0861 7.03149 15.9325 6.79898C15.7789 6.56646 15.5741 6.1445 15.4717 5.86031C15.3351 5.47279 15.2925 5.14555 15.2839 4.52551C15.2839 3.89687 15.3266 3.57824 15.4802 3.14766C15.5826 2.83764 15.7959 2.39845 15.9495 2.15732C16.1031 1.92481 16.4018 1.57174 16.6066 1.37367C16.8029 1.18421 17.1442 0.925866 17.3575 0.805304C17.5709 0.67613 17.9549 0.521121 18.2109 0.443617C18.4669 0.374724 18.7997 0.297219 18.9362 0.279996C19.0813 0.254161 19.4397 0.254161 19.7469 0.279996ZM9.72013 4.35328C9.80546 4.35328 9.8652 4.47385 9.89933 4.68052C9.92493 4.85276 10.0273 5.26611 10.1212 5.60196C10.2151 5.93782 10.4113 6.43729 10.5479 6.72147C10.6929 7.00566 10.9916 7.50513 11.2049 7.84098C11.4183 8.17683 11.8876 8.7452 12.2375 9.12411C12.5874 9.49441 13.1847 10.0025 13.5602 10.2522C13.9356 10.5106 14.6098 10.8895 15.0535 11.1048C15.4973 11.3201 16.2311 11.587 16.6749 11.7076C17.1186 11.8195 17.8866 11.9659 18.3816 12.0176C18.885 12.0779 19.5933 12.1037 20.0029 12.0693C20.404 12.0434 20.9587 11.9745 21.2403 11.9315C21.5219 11.8884 22.0424 11.7679 22.3923 11.6645C22.7421 11.5698 23.3821 11.3287 23.8003 11.122C24.227 10.9239 24.8584 10.5709 25.2083 10.3383C25.5582 10.1058 26.1811 9.58052 26.5822 9.17578C26.9833 8.77103 27.4782 8.19406 27.6745 7.88404C27.8707 7.57402 28.1694 7.05733 28.323 6.72147C28.4851 6.38562 28.6899 5.82587 28.7838 5.47279C28.8691 5.11972 28.9715 4.72358 28.9971 4.59441C29.0227 4.45662 29.1081 4.35328 29.1763 4.35328C29.2446 4.35328 29.3299 4.45662 29.3641 4.59441C29.3982 4.72358 29.4238 5.35223 29.4238 5.98949C29.4238 6.8937 29.3811 7.30706 29.2361 7.84098C29.1337 8.21989 28.8606 8.91743 28.6217 9.39107C28.3913 9.86471 28.0073 10.502 27.7769 10.812C27.5465 11.122 27.1027 11.6215 26.7785 11.9229C26.4542 12.2329 25.8654 12.6979 25.4643 12.9563C25.0632 13.2146 24.4744 13.5505 24.1416 13.7055C23.8174 13.8605 23.2371 14.0758 22.8616 14.1963C22.4861 14.3169 21.7608 14.4805 21.2403 14.558C20.5149 14.6786 19.9858 14.6958 18.9362 14.6614C17.972 14.6355 17.349 14.5666 16.8285 14.4375C16.4103 14.3341 15.7874 14.1361 15.4375 13.9983C15.0877 13.8605 14.5415 13.6108 14.2258 13.4471C13.9015 13.2835 13.3639 12.9563 13.0311 12.7151C12.6898 12.474 12.1351 11.9918 11.8023 11.6559C11.4695 11.3115 11.0343 10.7775 10.8295 10.4675C10.6332 10.1575 10.3431 9.66664 10.198 9.37385C10.0529 9.07244 9.83106 8.49546 9.70306 8.08211C9.50679 7.41901 9.48119 7.16928 9.47266 6.0756C9.46413 5.38667 9.48973 4.72358 9.53239 4.59441C9.56653 4.45662 9.65186 4.35328 9.72013 4.35328ZM2.21071 8.40073L3.45659 9.7097C4.13927 10.4331 5.07795 11.3631 5.54728 11.7679C6.00809 12.1812 6.86997 12.8702 7.45877 13.3007C8.20971 13.8519 8.96919 14.3169 10.0188 14.8422C10.8892 15.2814 11.973 15.755 12.6215 15.9703C13.2359 16.177 14.0807 16.4181 14.4988 16.5129C14.9255 16.599 15.6509 16.7368 16.1202 16.797C16.6322 16.8745 17.6733 16.9262 18.7229 16.9262C19.6872 16.9262 20.8221 16.8832 21.2403 16.8401C21.6669 16.797 22.1619 16.7368 22.3496 16.7109C22.6312 16.6679 22.5544 16.7282 21.8803 17.0382C21.4365 17.2448 20.4552 17.6582 19.7042 17.9596C18.9533 18.2524 17.9378 18.6744 17.4429 18.8811C16.9479 19.0963 16.2397 19.415 15.8642 19.5872C15.4887 19.768 14.8146 20.1297 14.3708 20.3967C13.9271 20.655 13.2956 21.0684 12.9628 21.3009C12.6386 21.5334 12.118 21.9209 11.8108 22.1707C11.5036 22.4204 10.7868 23.0921 10.2065 23.6691C9.63479 24.2461 9.15692 24.7456 9.16546 24.7886C9.16546 24.8231 9.11426 24.8489 9.06306 24.8489C9.00332 24.8575 9.13132 24.6422 9.36173 24.3752C9.58359 24.1169 9.7628 23.893 9.7628 23.8844C9.7628 23.8672 9.70306 23.8586 9.6348 23.8586C9.56653 23.8586 9.50679 23.9102 9.50679 23.9705C9.50679 24.0222 9.43853 24.0997 9.36173 24.1255C9.27639 24.16 9.11426 24.1858 8.99479 24.1858C8.87532 24.1858 8.75585 24.2289 8.72172 24.2805C8.68759 24.3322 8.51692 24.3839 8.33771 24.3925C8.15851 24.3925 7.85984 24.358 7.67211 24.315C7.48437 24.2633 7.2881 24.1772 7.2369 24.1255C7.1857 24.0738 7.12597 23.9705 7.09183 23.9016C7.06339 23.8155 7.04632 23.8385 7.04063 23.9705C7.0321 24.0738 6.99797 24.1427 6.94677 24.1169C6.9041 24.0911 6.86143 23.9963 6.86143 23.9016C6.86143 23.8069 6.81023 23.738 6.75903 23.7552C6.69076 23.7638 6.65663 23.7035 6.66516 23.6002C6.69076 23.4452 6.6737 23.4452 6.56276 23.5571C6.48596 23.626 6.45183 23.7035 6.47743 23.7294C6.50303 23.7552 6.43476 23.8327 6.33236 23.9016C6.22996 23.9705 6.10196 24.1513 6.04222 24.2891C5.97395 24.4441 5.93129 24.4872 5.92275 24.4011C5.92275 24.315 5.96542 24.16 6.01662 24.0566C6.07636 23.9447 6.35796 23.5658 6.6481 23.2127C6.93823 22.8596 7.50144 22.2568 7.90251 21.8779C8.29505 21.499 8.78999 21.0512 8.99479 20.8789C9.20812 20.7067 9.89933 20.2158 10.5308 19.7939C11.1623 19.3633 11.7596 18.9758 11.8535 18.9241C11.99 18.8466 11.9986 18.8208 11.8962 18.7863C11.8279 18.7605 11.2305 18.5452 10.5735 18.3041C9.9164 18.0543 8.93505 17.6238 8.39745 17.3396C7.85984 17.0554 6.93823 16.5042 6.34943 16.1167C5.76062 15.7292 5.01821 15.1781 4.68541 14.8939C4.36114 14.6183 4.01127 14.3169 3.9174 14.2308C3.82353 14.1533 3.72113 14.0844 3.687 14.0844C3.64433 14.0844 3.59313 14.7733 3.56753 15.6173C3.5334 16.4526 3.5334 17.6065 3.56753 18.1749C3.60166 18.7433 3.67846 19.6733 3.74673 20.2417C3.815 20.81 3.92593 21.5851 4.00273 21.964C4.071 22.3429 4.2502 23.0835 4.39527 23.6002C4.53181 24.1169 4.83048 24.9953 5.04381 25.5378C5.25715 26.0803 5.62408 26.9157 5.85449 27.3893C6.09342 27.8629 6.35796 28.3452 6.44329 28.4658C6.52863 28.5863 6.57983 28.7586 6.5713 28.8533C6.55423 28.948 6.46036 29.258 6.36649 29.5422C6.27262 29.8264 6.12756 30.3861 6.05929 30.7909C5.98249 31.1956 5.90569 31.7037 5.83742 32.341L5.47048 31.8932C5.27421 31.6434 4.83048 31.0062 4.49767 30.4895C4.16487 29.9728 3.6614 29.0944 3.37979 28.5519C3.08966 28.0093 2.68005 27.1137 2.45818 26.5712C2.23631 26.0287 1.91204 25.0728 1.73284 24.4614C1.55364 23.8499 1.32324 22.9543 1.22937 22.4807C1.1355 22.0071 0.998968 21.1545 0.922167 20.5861C0.8539 20.0178 0.777099 18.8983 0.742965 18.0888C0.717365 17.2448 0.734432 16.0995 0.794166 15.3761C0.845366 14.6872 0.973368 13.6021 1.06724 12.9649C1.16964 12.3276 1.3403 11.432 1.45124 10.9842C1.56217 10.5364 1.78404 9.76998 1.93765 9.27912L2.21071 8.40073ZM36.6687 8.41796L36.9844 9.38246C37.1551 9.90776 37.4026 10.812 37.522 11.3803C37.65 11.9487 37.8036 12.7754 37.8719 13.2318C37.9487 13.6796 38.0511 14.6872 38.1108 15.4709C38.1876 16.5645 38.1876 17.2621 38.1108 18.571C38.0511 19.4925 37.9316 20.7498 37.8378 21.3698C37.7524 21.9812 37.5732 22.9113 37.4538 23.4366C37.3343 23.9533 37.0783 24.8489 36.882 25.4173C36.6943 25.9856 36.4212 26.7004 36.2847 27.0104C36.1482 27.3118 35.8751 27.8802 35.6788 28.2591C35.4911 28.638 35.1412 29.2753 34.9108 29.68C34.6719 30.0761 34.3305 30.6445 34.1343 30.9287C33.9465 31.2129 33.4857 31.8329 33.1188 32.3065C32.7518 32.7802 32.035 33.581 31.5316 34.0977C31.0366 34.6144 30.2942 35.312 29.9017 35.6564C29.5006 35.9923 28.9203 36.4573 28.6217 36.6812C28.3145 36.9137 27.9561 37.1635 27.8281 37.241C27.7001 37.3185 27.5891 37.4132 27.5891 37.4477C27.5977 37.4821 27.555 37.5166 27.5123 37.5166C27.4611 37.5166 27.2137 37.6457 26.9577 37.818C26.6931 37.9816 26.4542 38.1108 26.42 38.1108C26.3859 38.1108 26.3006 38.171 26.2323 38.2485C26.1555 38.3347 25.9251 38.4811 25.7203 38.593C25.507 38.6963 24.8926 39.0064 24.355 39.2819C23.8088 39.5489 23.1603 39.8675 22.9043 39.9881C22.6397 40.1 21.7949 40.4273 21.0269 40.7115C20.2504 41.0043 19.5421 41.2368 19.4482 41.2368C19.3544 41.2282 18.9874 41.142 18.6376 41.0387C18.2792 40.9354 17.9549 40.8406 17.9122 40.8234C17.861 40.8148 17.8013 40.8148 17.7757 40.8148C17.7416 40.8234 17.6648 40.7803 17.605 40.7287C17.5367 40.677 17.2722 40.5651 17.0162 40.4876C16.7517 40.4014 16.5042 40.2981 16.4615 40.2637C16.4103 40.2292 16.3506 40.1948 16.3335 40.1948C16.3079 40.1948 16.2141 40.1689 16.1202 40.1259C16.0263 40.0914 15.5058 39.8675 14.9682 39.6264C14.422 39.3853 13.7394 39.0408 13.4492 38.8686C13.1591 38.6877 12.8775 38.5499 12.8348 38.5499C12.7836 38.5499 12.741 38.4983 12.741 38.438C12.741 38.3777 12.8007 38.1538 12.8775 37.9471C12.9458 37.7318 13.1676 37.2065 13.3639 36.7846C13.5602 36.354 13.7223 35.9923 13.7223 35.9837C13.7223 35.9751 14.166 36.1731 14.7122 36.4229C15.2498 36.6726 15.8215 36.9396 15.9922 37.0085C16.1543 37.086 16.5213 37.2324 16.8029 37.3357C17.0845 37.439 17.5026 37.6113 17.7416 37.706C17.972 37.8007 18.4498 37.9644 19.4482 38.2485L20.0029 38.0505C20.3016 37.9385 20.7282 37.7921 20.9416 37.7146C21.1464 37.6371 21.6072 37.439 21.9656 37.2754C22.3155 37.1118 22.8872 36.8362 23.2456 36.6726C23.5955 36.5004 24.2952 36.1129 24.7987 35.8115C25.3022 35.5187 25.7374 35.2775 25.763 35.2775C25.78 35.2775 25.8568 35.2259 25.9336 35.1656C26.0019 35.1053 26.1128 35.0192 26.164 34.9761C26.2238 34.9245 26.4456 34.7694 26.659 34.6317C26.8638 34.4853 27.3246 34.1408 27.683 33.8566C28.0329 33.5724 28.7155 32.9524 29.2019 32.4788C29.6883 32.0051 30.3966 31.2301 30.7806 30.7564C31.1561 30.2828 31.7278 29.4819 32.0521 28.9911C32.3764 28.4916 32.8799 27.5788 33.1785 26.9673C33.4857 26.3473 33.8953 25.3398 34.1087 24.7283C34.3135 24.1083 34.5865 23.1955 34.706 22.7046C34.8255 22.2051 34.9876 21.4301 35.0559 20.9823C35.1241 20.5259 35.2095 19.8714 35.2436 19.5183C35.2863 19.1566 35.3033 17.9424 35.3033 16.8057C35.2948 15.6689 35.2521 14.5753 35.1497 14.0241L33.8271 15.2383C33.0932 15.9014 32.0436 16.8143 31.4804 17.2707C30.9172 17.7271 29.9956 18.4505 29.4323 18.8811C28.8691 19.303 28.1011 19.8714 27.7257 20.1297C27.3502 20.3967 26.5566 20.922 25.9763 21.3009C25.3875 21.6712 24.3294 22.3171 23.6296 22.7132C22.9213 23.118 21.94 23.6777 21.4536 23.9533C20.9587 24.2289 19.9773 24.7972 19.2776 25.2278C18.5693 25.6498 17.6135 26.2698 17.1442 26.6057C16.6749 26.9329 16.0178 27.4324 15.6935 27.6993C15.3607 27.9663 14.7805 28.4916 14.405 28.8705C14.0295 29.2408 13.4919 29.8178 13.2103 30.1536C12.9287 30.4809 12.4679 31.1009 12.1863 31.5315C11.9132 31.9621 11.6316 32.384 11.5719 32.4788C11.5121 32.5735 11.3671 32.8405 11.2391 33.0816C11.1111 33.3141 10.8636 33.8222 10.6929 34.2011C10.5223 34.58 10.2663 35.2775 10.1127 35.7512C9.95907 36.2248 9.80546 36.7243 9.7628 36.8707C9.72013 37.0085 9.64333 37.3702 9.59213 37.6629C9.54093 37.9557 9.46413 38.4208 9.42146 38.6963C9.37879 38.9719 9.32759 39.3164 9.31052 39.4714C9.30199 39.6264 9.25932 39.7556 9.22519 39.7556C9.19106 39.7556 9.08012 39.5661 8.98625 39.3422C8.88385 39.1183 8.71319 38.6447 8.59372 38.2916C8.47425 37.9299 8.36331 37.5854 8.34625 37.5166C8.33771 37.439 8.28651 37.2065 8.23531 36.9999C8.18411 36.7846 8.12438 36.4918 8.09024 36.354C8.05611 36.2076 8.02198 35.51 8.00491 34.8039C7.98784 33.8136 8.02198 33.2883 8.14998 32.5649C8.23531 32.0396 8.44865 31.2042 8.61932 30.7134C8.78999 30.2139 9.13986 29.3786 9.40439 28.8619C9.66893 28.3366 10.0529 27.6563 10.2577 27.3549C10.4711 27.0448 10.9148 26.4593 11.2561 26.0631C11.589 25.6584 12.1436 25.0642 12.4764 24.7456C12.8092 24.4269 13.381 23.9274 13.7479 23.6347C14.1148 23.3419 14.8914 22.7907 15.4802 22.3946C16.0605 22.0071 16.9053 21.4818 17.3575 21.232C17.8013 20.9823 19.5848 20.0522 21.3256 19.1738C23.0579 18.2869 24.9438 17.3051 25.507 16.9951C26.0702 16.6851 26.9918 16.1512 27.555 15.8153C28.1182 15.4709 28.6899 15.1092 28.835 15.0058C28.9715 14.9025 29.1849 14.7647 29.3043 14.7044C29.4153 14.6441 29.9956 14.248 30.5844 13.8088C31.1646 13.3782 32.0862 12.6721 32.6324 12.2329C33.17 11.8023 34.2964 10.7603 35.1412 9.9336L36.6687 8.41796ZM33.8953 19.5011C33.9124 19.5528 33.8783 20.0178 33.8271 20.5259C33.7673 21.0339 33.6137 21.8779 33.4857 22.3946C33.3492 22.9199 33.1017 23.6949 32.931 24.1169C32.7604 24.5475 32.4276 25.245 32.1886 25.667C31.9412 26.0976 31.5828 26.6659 31.378 26.9415C31.139 27.2601 30.9684 27.4065 30.9001 27.3721C30.8318 27.3262 30.8176 27.3405 30.8574 27.4151C30.9001 27.4754 30.755 27.6907 30.482 27.9749C30.115 28.3538 30.0809 28.371 30.2686 28.1041C30.3966 27.9232 30.4734 27.751 30.4393 27.7166C30.4137 27.6735 30.371 27.6993 30.354 27.7596C30.3369 27.8113 30.2686 27.8629 30.2004 27.8629C30.1236 27.8629 30.0724 27.906 30.0724 27.9491C30.0724 28.0007 29.97 28.0352 29.859 28.0352C29.7168 28.0352 29.6315 28.0926 29.603 28.2074C29.5689 28.3194 29.4579 28.3969 29.2787 28.4313C29.1251 28.4658 28.9459 28.4571 28.8777 28.4141C28.7838 28.3624 28.7667 28.371 28.8094 28.4485C28.8521 28.5088 28.8265 28.5519 28.7497 28.5519C28.6729 28.5519 28.5961 28.6122 28.579 28.6811C28.5449 28.7758 28.4254 28.8102 28.1267 28.793C27.9049 28.7844 27.555 28.8016 27.3587 28.8361C27.1454 28.8705 26.9833 28.8619 26.9577 28.8102C26.9321 28.7586 26.7785 28.7499 26.5907 28.7758C26.4115 28.8102 26.1896 28.793 26.0787 28.7327C25.9763 28.6811 25.7459 28.6294 25.5667 28.6294C25.3875 28.6208 25.1571 28.5777 25.0547 28.5433C24.9352 28.4916 24.884 28.4141 24.9096 28.3366C24.9352 28.2419 24.9011 28.216 24.739 28.2505C24.5427 28.2935 24.5256 28.2677 24.5427 28.0352C24.5598 27.8543 24.5342 27.7941 24.4574 27.8199C24.3976 27.8457 24.355 27.8457 24.355 27.8199C24.355 27.7941 24.4915 27.6993 24.6707 27.6046C24.884 27.484 24.9608 27.3979 24.9096 27.3376C24.8499 27.2774 24.6707 27.3118 24.372 27.4496C24.1246 27.5615 23.9027 27.6993 23.8771 27.7596C23.86 27.8113 23.7918 27.8543 23.732 27.8457C23.6723 27.8457 23.5101 27.8802 23.3736 27.9405C23.2285 28.0007 23.0835 28.0696 23.0493 28.0869C23.0152 28.1041 22.9896 28.1041 22.9896 28.0782C22.9896 28.0524 23.3736 27.8199 23.843 27.5615C24.3379 27.286 24.739 27.1137 24.7987 27.1568C24.867 27.197 24.8812 27.1826 24.8414 27.1137C24.7987 27.0362 24.9608 26.8984 25.3534 26.6918C25.6691 26.5195 26.3518 26.0976 26.8723 25.7617C27.3843 25.4173 28.2462 24.8144 28.7923 24.4097C29.3299 24.005 30.115 23.3849 30.5417 23.0232C30.9598 22.6615 31.6681 21.9898 32.1204 21.5248C32.5641 21.0512 33.1444 20.3881 33.4004 20.0436C33.6564 19.6905 33.8783 19.4494 33.8953 19.5011Z" fill="white"/>
</svg>
